
<svg id="visual" viewBox="0 0 808 455" width="808" height="455" xmlns="http://www.w3.org/2000/svg" xmlns:xlink="http://www.w3.org/1999/xlink" version="1.1"><rect x="0" y="0" width="808" height="455" fill="#FFFFFF"></rect><defs><linearGradient id="grad1_0" x1="43.7%" y1="0%" x2="100%" y2="100%"><stop offset="14.483516483516485%" stop-color="#f2f5fc" stop-opacity="1"></stop><stop offset="85.5164835164835%" stop-color="#f2f5fc" stop-opacity="1"></stop></linearGradient></defs><defs><linearGradient id="grad1_1" x1="43.7%" y1="0%" x2="100%" y2="100%"><stop offset="14.483516483516485%" stop-color="#f2f5fc" stop-opacity="1"></stop><stop offset="85.5164835164835%" stop-color="#f6f8fd" stop-opacity="1"></stop></linearGradient></defs><defs><linearGradient id="grad1_2" x1="43.7%" y1="0%" x2="100%" y2="100%"><stop offset="14.483516483516485%" stop-color="#fbfcfe" stop-opacity="1"></stop><stop offset="85.5164835164835%" stop-color="#f6f8fd" stop-opacity="1"></stop></linearGradient></defs><defs><linearGradient id="grad1_3" x1="43.7%" y1="0%" x2="100%" y2="100%"><stop offset="14.483516483516485%" stop-color="#fbfcfe" stop-opacity="1"></stop><stop offset="85.5164835164835%" stop-color="#ffffff" stop-opacity="1"></stop></linearGradient></defs><defs><linearGradient id="grad2_0" x1="0%" y1="0%" x2="56.3%" y2="100%"><stop offset="14.483516483516485%" stop-color="#f2f5fc" stop-opacity="1"></stop><stop offset="85.5164835164835%" stop-color="#f2f5fc" stop-opacity="1"></stop></linearGradient></defs><defs><linearGradient id="grad2_1" x1="0%" y1="0%" x2="56.3%" y2="100%"><stop offset="14.483516483516485%" stop-color="#f6f8fd" stop-opacity="1"></stop><stop offset="85.5164835164835%" stop-color="#f2f5fc" stop-opacity="1"></stop></linearGradient></defs><defs><linearGradient id="grad2_2" x1="0%" y1="0%" x2="56.3%" y2="100%"><stop offset="14.483516483516485%" stop-color="#f6f8fd" stop-opacity="1"></stop><stop offset="85.5164835164835%" stop-color="#fbfcfe" stop-opacity="1"></stop></linearGradient></defs><defs><linearGradient id="grad2_3" x1="0%" y1="0%" x2="56.3%" y2="100%"><stop offset="14.483516483516485%" stop-color="#ffffff" stop-opacity="1"></stop><stop offset="85.5164835164835%" stop-color="#fbfcfe" stop-opacity="1"></stop></linearGradient></defs><g transform="translate(808, 0)"><path d="M0 455C-67.9 456.6 -135.8 458.1 -174.1 420.4C-212.4 382.6 -221.1 305.5 -262.3 262.3C-303.6 219.2 -377.3 209.9 -414.8 171.8C-452.4 133.8 -453.7 66.9 -455 0L0 0Z" fill="#fdfdff"></path><path d="M0 341.3C-50.9 342.4 -101.9 343.6 -130.6 315.3C-159.3 287 -165.8 229.1 -196.8 196.8C-227.7 164.4 -283 157.4 -311.1 128.9C-339.3 100.3 -340.3 50.2 -341.2 0L0 0Z" fill="#f9fafe"></path><path d="M0 227.5C-34 228.3 -67.9 229.1 -87.1 210.2C-106.2 191.3 -110.6 152.8 -131.2 131.2C-151.8 109.6 -188.6 104.9 -207.4 85.9C-226.2 66.9 -226.8 33.4 -227.5 0L0 0Z" fill="#f4f7fd"></path><path d="M0 113.8C-17 114.1 -34 114.5 -43.5 105.1C-53.1 95.7 -55.3 76.4 -65.6 65.6C-75.9 54.8 -94.3 52.5 -103.7 43C-113.1 33.4 -113.4 16.7 -113.7 0L0 0Z" fill="#f2f5fc"></path></g><g transform="translate(0, 455)"><path d="M0 -455C61.8 -444.2 123.6 -433.5 166.1 -401C208.6 -368.5 231.9 -314.2 276.5 -276.5C321.1 -238.7 387.1 -217.5 420.4 -174.1C453.7 -130.8 454.3 -65.4 455 0L0 0Z" fill="#fdfdff"></path><path d="M0 -341.2C46.3 -333.2 92.7 -325.1 124.6 -300.7C156.5 -276.3 173.9 -235.7 207.4 -207.4C240.8 -179 290.3 -163.1 315.3 -130.6C340.3 -98.1 340.8 -49 341.3 0L0 0Z" fill="#f9fafe"></path><path d="M0 -227.5C30.9 -222.1 61.8 -216.7 83 -200.5C104.3 -184.2 115.9 -157.1 138.2 -138.2C160.5 -119.4 193.5 -108.7 210.2 -87.1C226.8 -65.4 227.2 -32.7 227.5 0L0 0Z" fill="#f4f7fd"></path><path d="M0 -113.7C15.4 -111.1 30.9 -108.4 41.5 -100.2C52.2 -92.1 58 -78.6 69.1 -69.1C80.3 -59.7 96.8 -54.4 105.1 -43.5C113.4 -32.7 113.6 -16.3 113.8 0L0 0Z" fill="#f2f5fc"></path></g></svg>